<mxfile host="app.diagrams.net" modified="2022-01-17T19:44:38.255Z" agent="5.0 (Windows NT 10.0; Win64; x64) AppleWebKit/537.36 (KHTML, like Gecko) Chrome/96.0.4664.110 Safari/537.36" etag="mQ65TbfXiAN35tqZ2G_n" version="15.2.7" type="github">
  <diagram id="qFV3jNqiSBe_29CYPtVP" name="Page-1">
    <mxGraphModel dx="1422" dy="762" grid="1" gridSize="10" guides="1" tooltips="1" connect="1" arrows="1" fold="1" page="1" pageScale="1" pageWidth="827" pageHeight="1169" math="0" shadow="0">
      <root>
        <mxCell id="0" />
        <mxCell id="1" parent="0" />
        <mxCell id="uuzsLNwZXtXoxCtTIN2L-3" style="edgeStyle=orthogonalEdgeStyle;rounded=0;orthogonalLoop=1;jettySize=auto;html=1;entryX=0;entryY=0.5;entryDx=0;entryDy=0;strokeWidth=2;" edge="1" parent="1" source="uuzsLNwZXtXoxCtTIN2L-1" target="uuzsLNwZXtXoxCtTIN2L-2">
          <mxGeometry relative="1" as="geometry" />
        </mxCell>
        <mxCell id="uuzsLNwZXtXoxCtTIN2L-16" style="edgeStyle=orthogonalEdgeStyle;rounded=0;orthogonalLoop=1;jettySize=auto;html=1;entryX=0.5;entryY=0;entryDx=0;entryDy=0;strokeColor=default;strokeWidth=1;dashed=1;" edge="1" parent="1" source="uuzsLNwZXtXoxCtTIN2L-1" target="uuzsLNwZXtXoxCtTIN2L-14">
          <mxGeometry relative="1" as="geometry" />
        </mxCell>
        <mxCell id="uuzsLNwZXtXoxCtTIN2L-21" value="&lt;font style=&quot;font-size: 15px&quot;&gt;&lt;b&gt;Waiting&lt;/b&gt;&lt;/font&gt;" style="edgeLabel;html=1;align=center;verticalAlign=middle;resizable=0;points=[];" vertex="1" connectable="0" parent="uuzsLNwZXtXoxCtTIN2L-16">
          <mxGeometry x="-0.181" relative="1" as="geometry">
            <mxPoint as="offset" />
          </mxGeometry>
        </mxCell>
        <mxCell id="uuzsLNwZXtXoxCtTIN2L-1" value="&lt;b&gt;&lt;font style=&quot;font-size: 20px&quot;&gt;Main&lt;/font&gt;&lt;/b&gt;" style="ellipse;whiteSpace=wrap;html=1;aspect=fixed;fillColor=#dae8fc;strokeColor=#6c8ebf;" vertex="1" parent="1">
          <mxGeometry x="140" y="120" width="70" height="70" as="geometry" />
        </mxCell>
        <mxCell id="uuzsLNwZXtXoxCtTIN2L-15" style="edgeStyle=orthogonalEdgeStyle;rounded=0;orthogonalLoop=1;jettySize=auto;html=1;entryX=0.5;entryY=0;entryDx=0;entryDy=0;strokeColor=default;strokeWidth=2;" edge="1" parent="1" source="uuzsLNwZXtXoxCtTIN2L-2" target="uuzsLNwZXtXoxCtTIN2L-13">
          <mxGeometry relative="1" as="geometry" />
        </mxCell>
        <mxCell id="uuzsLNwZXtXoxCtTIN2L-22" value="&lt;font style=&quot;font-size: 15px&quot;&gt;&lt;b&gt;Working&lt;/b&gt;&lt;/font&gt;" style="edgeLabel;html=1;align=center;verticalAlign=middle;resizable=0;points=[];" vertex="1" connectable="0" parent="uuzsLNwZXtXoxCtTIN2L-15">
          <mxGeometry x="-0.2571" y="1" relative="1" as="geometry">
            <mxPoint as="offset" />
          </mxGeometry>
        </mxCell>
        <mxCell id="uuzsLNwZXtXoxCtTIN2L-2" value="&lt;b&gt;&lt;font style=&quot;font-size: 20px&quot;&gt;Sub&lt;/font&gt;&lt;/b&gt;" style="ellipse;whiteSpace=wrap;html=1;aspect=fixed;fillColor=#f8cecc;strokeColor=#b85450;" vertex="1" parent="1">
          <mxGeometry x="430" y="120" width="70" height="70" as="geometry" />
        </mxCell>
        <mxCell id="uuzsLNwZXtXoxCtTIN2L-4" value="&lt;font style=&quot;font-size: 15px&quot;&gt;&lt;b&gt;Create&lt;/b&gt;&lt;/font&gt;" style="text;html=1;align=center;verticalAlign=middle;resizable=0;points=[];autosize=1;strokeColor=none;fillColor=none;" vertex="1" parent="1">
          <mxGeometry x="290" y="130" width="60" height="20" as="geometry" />
        </mxCell>
        <mxCell id="uuzsLNwZXtXoxCtTIN2L-17" style="edgeStyle=orthogonalEdgeStyle;rounded=0;orthogonalLoop=1;jettySize=auto;html=1;entryX=1;entryY=0.5;entryDx=0;entryDy=0;strokeColor=default;strokeWidth=1;shape=link;" edge="1" parent="1" source="uuzsLNwZXtXoxCtTIN2L-13" target="uuzsLNwZXtXoxCtTIN2L-14">
          <mxGeometry relative="1" as="geometry" />
        </mxCell>
        <mxCell id="uuzsLNwZXtXoxCtTIN2L-13" value="" style="ellipse;whiteSpace=wrap;html=1;aspect=fixed;fillColor=none;strokeColor=none;" vertex="1" parent="1">
          <mxGeometry x="450" y="400" width="30" height="30" as="geometry" />
        </mxCell>
        <mxCell id="uuzsLNwZXtXoxCtTIN2L-19" style="edgeStyle=orthogonalEdgeStyle;rounded=0;orthogonalLoop=1;jettySize=auto;html=1;strokeColor=default;strokeWidth=2;" edge="1" parent="1" source="uuzsLNwZXtXoxCtTIN2L-14">
          <mxGeometry relative="1" as="geometry">
            <mxPoint x="175" y="640" as="targetPoint" />
          </mxGeometry>
        </mxCell>
        <mxCell id="uuzsLNwZXtXoxCtTIN2L-20" value="&lt;font style=&quot;font-size: 15px&quot;&gt;&lt;b&gt;Working&lt;/b&gt;&lt;/font&gt;" style="edgeLabel;html=1;align=center;verticalAlign=middle;resizable=0;points=[];" vertex="1" connectable="0" parent="uuzsLNwZXtXoxCtTIN2L-19">
          <mxGeometry x="-0.1048" y="1" relative="1" as="geometry">
            <mxPoint as="offset" />
          </mxGeometry>
        </mxCell>
        <mxCell id="uuzsLNwZXtXoxCtTIN2L-14" value="" style="ellipse;whiteSpace=wrap;html=1;aspect=fixed;fillColor=none;strokeColor=none;" vertex="1" parent="1">
          <mxGeometry x="160" y="400" width="30" height="30" as="geometry" />
        </mxCell>
        <mxCell id="uuzsLNwZXtXoxCtTIN2L-23" value="&lt;font style=&quot;font-size: 15px&quot;&gt;&lt;b&gt;Terminated&lt;/b&gt;&lt;/font&gt;" style="text;html=1;align=center;verticalAlign=middle;resizable=0;points=[];autosize=1;strokeColor=none;fillColor=none;" vertex="1" parent="1">
          <mxGeometry x="445" y="405" width="100" height="20" as="geometry" />
        </mxCell>
      </root>
    </mxGraphModel>
  </diagram>
</mxfile>
